<svg xmlns="http://www.w3.org/2000/svg" xmlns:xlink="http://www.w3.org/1999/xlink" viewBox="0 0 693.61 566.07"><defs><style>.cls-1{fill:url(#linear-gradient);}.cls-2,.cls-20{fill:#fff;}.cls-3{fill:#64ffda;}.cls-4{opacity:0.7;}.cls-5{opacity:0.6;}.cls-6{opacity:0.5;}.cls-7{opacity:0.4;}.cls-8{opacity:0.3;}.cls-9{fill:#6c63ff;}.cls-10{fill:url(#linear-gradient-2);}.cls-11{fill:url(#linear-gradient-3);}.cls-12{fill:url(#linear-gradient-4);}.cls-13,.cls-14,.cls-15,.cls-16{fill:none;stroke:#6c63ff;stroke-linecap:round;stroke-linejoin:round;stroke-width:4px;}.cls-14{stroke-dasharray:12.52 33.38;}.cls-15{stroke-dasharray:11.93 31.8;}.cls-16{stroke-dasharray:11.55 30.79;}.cls-17{fill:#e0e0e0;}.cls-18{fill:url(#linear-gradient-5);}.cls-19{fill:#f5f5f5;}.cls-20{opacity:0.2;isolation:isolate;}</style><linearGradient id="linear-gradient" x1="157.67" y1="230.23" x2="157.67" y2="582.19" gradientTransform="matrix(1, 0, 0, -1, 0, 582.19)" gradientUnits="userSpaceOnUse"><stop offset="0" stop-color="gray" stop-opacity="0.25"/><stop offset="0.54" stop-color="gray" stop-opacity="0.12"/><stop offset="1" stop-color="gray" stop-opacity="0.1"/></linearGradient><linearGradient id="linear-gradient-2" x1="266.96" y1="490.01" x2="266.96" y2="551.48" xlink:href="#linear-gradient"/><linearGradient id="linear-gradient-3" x1="266.96" y1="375.69" x2="266.96" y2="437.16" xlink:href="#linear-gradient"/><linearGradient id="linear-gradient-4" x1="266.96" y1="262.13" x2="266.96" y2="323.6" xlink:href="#linear-gradient"/><linearGradient id="linear-gradient-5" x1="655.93" y1="3.65" x2="655.93" y2="245.34" gradientTransform="matrix(1, 0, 0, -1, -148, 509.57)" xlink:href="#linear-gradient"/></defs><title>Asset 1</title><g id="Layer_2" data-name="Layer 2"><g id="d208afe9-d246-44b1-9723-4e792280c828"><rect class="cls-1" width="315.35" height="351.96"/><rect class="cls-2" x="5.21" y="234.99" width="304.92" height="109.31"/><rect class="cls-3" x="30.24" y="260.92" width="11.82" height="56.01"/><g class="cls-4"><rect class="cls-3" x="53.56" y="260.92" width="11.82" height="56.01"/></g><g class="cls-5"><rect class="cls-3" x="76.9" y="260.92" width="11.82" height="56.01"/></g><g class="cls-6"><rect class="cls-3" x="100.22" y="260.92" width="11.82" height="56.01"/></g><g class="cls-6"><rect class="cls-3" x="123.55" y="260.92" width="11.82" height="56.01"/></g><g class="cls-7"><rect class="cls-3" x="146.87" y="260.92" width="11.82" height="56.01"/></g><g class="cls-8"><rect class="cls-3" x="170.2" y="260.92" width="11.82" height="56.01"/></g><circle class="cls-9" cx="266.96" cy="288.56" r="28.51"/><rect class="cls-2" x="5.21" y="121.43" width="304.92" height="109.31"/><rect class="cls-3" x="30.24" y="147.35" width="11.82" height="56.01"/><g class="cls-4"><rect class="cls-3" x="53.56" y="147.35" width="11.82" height="56.01"/></g><g class="cls-5"><rect class="cls-3" x="76.9" y="147.35" width="11.82" height="56.01"/></g><g class="cls-6"><rect class="cls-3" x="100.22" y="147.35" width="11.82" height="56.01"/></g><g class="cls-6"><rect class="cls-3" x="123.55" y="147.35" width="11.82" height="56.01"/></g><g class="cls-7"><rect class="cls-3" x="146.87" y="147.35" width="11.82" height="56.01"/></g><g class="cls-8"><rect class="cls-3" x="170.2" y="147.35" width="11.82" height="56.01"/></g><circle class="cls-9" cx="266.96" cy="175.01" r="28.51"/><rect class="cls-2" x="5.21" y="7.86" width="304.92" height="109.31"/><rect class="cls-3" x="30.24" y="33.8" width="11.82" height="56.01"/><g class="cls-4"><rect class="cls-3" x="53.56" y="33.8" width="11.82" height="56.01"/></g><g class="cls-5"><rect class="cls-3" x="76.9" y="33.8" width="11.82" height="56.01"/></g><g class="cls-6"><rect class="cls-3" x="100.22" y="33.8" width="11.82" height="56.01"/></g><g class="cls-6"><rect class="cls-3" x="123.55" y="33.8" width="11.82" height="56.01"/></g><g class="cls-7"><rect class="cls-3" x="146.87" y="33.8" width="11.82" height="56.01"/></g><g class="cls-8"><rect class="cls-3" x="170.2" y="33.8" width="11.82" height="56.01"/></g><circle class="cls-10" cx="266.96" cy="61.44" r="30.74"/><circle class="cls-11" cx="266.96" cy="175.77" r="30.74"/><circle class="cls-12" cx="266.96" cy="289.32" r="30.74"/><circle class="cls-9" cx="266.96" cy="61.44" r="28.51"/><g class="cls-4"><line class="cls-13" x1="353.71" y1="121.74" x2="358.32" y2="121.74"/><line class="cls-14" x1="383.93" y1="121.74" x2="512.01" y2="121.74"/><polyline class="cls-13" points="524.81 121.74 529.42 121.74 529.42 126.35"/><line class="cls-15" x1="529.42" y1="150.75" x2="529.42" y2="239.21"/><line class="cls-13" x1="529.42" y1="251.41" x2="529.42" y2="256.02"/></g><g class="cls-4"><line class="cls-13" x1="282.03" y1="469.32" x2="277.43" y2="469.29"/><line class="cls-14" x1="251.82" y1="469.17" x2="123.75" y2="468.56"/><polyline class="cls-13" points="110.93 468.5 106.33 468.48 106.36 463.88"/><line class="cls-16" x1="106.51" y1="440.25" x2="106.87" y2="387.1"/><line class="cls-13" x1="106.94" y1="375.29" x2="106.97" y2="370.68"/></g><path class="cls-17" d="M553.36,483.73s9.15,61.75,63.13,82.34H397.81c54-20.59,63.13-82.34,63.13-82.34Z"/><path class="cls-18" d="M685.37,264.23H330.5a8.26,8.26,0,0,0-8.25,8.25h0V496.06a9.86,9.86,0,0,0,9.87,9.86H683.75a9.85,9.85,0,0,0,9.86-9.86V272.48a8.25,8.25,0,0,0-8.24-8.25Z"/><path class="cls-2" d="M335,267.61h344.4a8.24,8.24,0,0,1,8.24,8.25h0V467.27H326.72V275.86a8.24,8.24,0,0,1,8.24-8.25Z"/><path class="cls-19" d="M677.75,500.2H336.59a9.87,9.87,0,0,1-9.87-9.87V467.27H687.61v23.06A9.86,9.86,0,0,1,677.75,500.2Z"/><rect class="cls-9" x="344.56" y="283.78" width="326.59" height="161.17"/><polygon class="cls-20" points="357.48 294.48 671.36 294.48 671.36 283.73 344.77 283.73 344.77 444.9 357.48 444.9 357.48 294.48"/></g></g></svg>