<svg xmlns="http://www.w3.org/2000/svg" viewBox="0 0 1012 625"><defs><style>.cls-1{fill:#3f3d56;}.cls-2{opacity:0.1;isolation:isolate;}.cls-3{fill:#f2f2f2;}.cls-4{fill:#6c63ff;}</style></defs><title>programming</title><g id="Layer_2" data-name="Layer 2"><g id="a594ac37-6d44-4297-8862-1cbd9c01c0b7"><ellipse class="cls-1" cx="506" cy="594" rx="506" ry="31"/><ellipse class="cls-2" cx="506" cy="593.5" rx="431" ry="20.5"/><rect class="cls-1" x="137" width="752" height="590"/><path class="cls-3" d="M504.44,80.63H318.93a2.25,2.25,0,0,1,0-4.5H504.44a2.25,2.25,0,0,1,0,4.5Z"/><path class="cls-3" d="M707.52,105.39H415.74a2.25,2.25,0,0,1,0-4.5H707.52a2.25,2.25,0,0,1,0,4.5Z"/><path class="cls-3" d="M505.35,130.16H319.83a2.25,2.25,0,0,1,0-4.5H505.35a2.25,2.25,0,0,1,0,4.5Z"/><path class="cls-3" d="M707.52,130.61H522a2.25,2.25,0,1,1,0-4.5H707.52a2.25,2.25,0,0,1,0,4.5Z"/><path class="cls-3" d="M505.8,154.93H320.28a2.26,2.26,0,0,1,0-4.51H505.8a2.26,2.26,0,0,1,0,4.51Z"/><path class="cls-3" d="M506.25,179.69H320.73a2.25,2.25,0,0,1,0-4.5H506.25a2.25,2.25,0,0,1,0,4.5Z"/><path class="cls-3" d="M590.45,81.08H537.32a2.25,2.25,0,1,1,0-4.5h53.13a2.25,2.25,0,0,1,0,4.5Z"/><path class="cls-3" d="M590.45,154.93H537.32a2.26,2.26,0,1,1,0-4.51h53.13a2.26,2.26,0,0,1,0,4.51Z"/><path class="cls-3" d="M590.45,179.24H537.32a2.25,2.25,0,1,1,0-4.5h53.15a2.25,2.25,0,1,1,0,4.5Z"/><path class="cls-3" d="M679.61,179.24H626.47a2.25,2.25,0,0,1,0-4.5h53.14a2.25,2.25,0,0,1,0,4.5Z"/><path class="cls-3" d="M371.61,105.39H318.48a2.25,2.25,0,0,1,0-4.5h53.13a2.25,2.25,0,0,1,0,4.5Z"/><path class="cls-3" d="M504.67,445.36H319.15a2.25,2.25,0,0,1,0-4.5H504.67a2.25,2.25,0,0,1,0,4.5Z"/><path class="cls-3" d="M503.77,494.89H318.25a2.25,2.25,0,0,1,0-4.5H503.77a2.25,2.25,0,0,1,0,4.5Z"/><path class="cls-3" d="M504.22,519.66H318.7a2.26,2.26,0,0,1,0-4.51H504.22a2.26,2.26,0,0,1,0,4.51Z"/><path class="cls-3" d="M583.47,495.34H530.34a2.25,2.25,0,1,1,0-4.5h53.13a2.25,2.25,0,0,1,0,4.5Z"/><path class="cls-3" d="M583.47,519.66H530.34a2.26,2.26,0,1,1,0-4.51h53.13a2.26,2.26,0,0,1,0,4.51Z"/><path class="cls-3" d="M672.63,495.34H619.49a2.25,2.25,0,0,1,0-4.5h53.14a2.25,2.25,0,0,1,0,4.5Z"/><path class="cls-3" d="M707.75,470.13H416a2.26,2.26,0,0,1,0-4.51H707.75a2.26,2.26,0,0,1,0,4.51Z"/><path class="cls-3" d="M371.84,470.13H318.7a2.26,2.26,0,0,1,0-4.51h53.14a2.26,2.26,0,0,1,0,4.51Z"/><path class="cls-3" d="M707.75,544.87H416a2.25,2.25,0,1,1,0-4.5H707.75a2.25,2.25,0,0,1,0,4.5Z"/><path class="cls-3" d="M371.84,544.87H318.7a2.25,2.25,0,1,1,0-4.5h53.14a2.25,2.25,0,1,1,0,4.5Z"/><polygon class="cls-4" points="459.87 239.13 387.82 310.27 459.87 381.42 476.08 365.21 421.59 310.73 476.53 255.79 459.87 239.13"/><polygon class="cls-4" points="566.13 239.13 638.18 310.27 566.13 381.42 549.92 365.21 604.41 310.73 549.47 255.79 566.13 239.13"/><circle class="cls-4" cx="157" cy="15" r="9"/><circle class="cls-4" cx="181" cy="15" r="9"/><circle class="cls-4" cx="205" cy="15" r="9"/><rect class="cls-2" x="137" y="30" width="752" height="3"/><line class="cls-1" x1="969.58" y1="589.65" x2="978.14" y2="589.65"/></g></g></svg>