<svg xmlns="http://www.w3.org/2000/svg" xmlns:xlink="http://www.w3.org/1999/xlink" viewBox="0 0 204.34 178.86"><defs><style>.cls-1,.cls-10{fill:#6c63ff;}.cls-1,.cls-17,.cls-3,.cls-4,.cls-7{opacity:0.1;}.cls-1,.cls-17,.cls-19,.cls-3,.cls-4,.cls-8{isolation:isolate;}.cls-2{fill:#a8a8a8;}.cls-11,.cls-3{fill:#fff;}.cls-5{fill:#464353;}.cls-6{fill:url(#linear-gradient);}.cls-8{opacity:0.06;}.cls-9{fill:#fbbebe;}.cls-12{fill:#fed253;}.cls-13{fill:url(#linear-gradient-2);}.cls-14{fill:#d6d8e1;}.cls-15{fill:#f86d70;}.cls-16{fill:#444176;}.cls-17{fill:none;stroke:#000;stroke-miterlimit:10;}.cls-18{opacity:0.05;}.cls-19{opacity:0.2;}</style><linearGradient id="linear-gradient" x1="84.48" y1="210.31" x2="147.01" y2="210.31" gradientTransform="matrix(1, 0, 0, -1, -83.88, 294.16)" gradientUnits="userSpaceOnUse"><stop offset="0" stop-color="gray" stop-opacity="0.25"/><stop offset="0.54" stop-color="gray" stop-opacity="0.12"/><stop offset="1" stop-color="gray" stop-opacity="0.1"/></linearGradient><linearGradient id="linear-gradient-2" x1="2682.37" y1="229.89" x2="2730.23" y2="229.89" gradientTransform="translate(2730.82 294.16) rotate(180)" xlink:href="#linear-gradient"/></defs><title>warning-demo</title><g id="Layer_2" data-name="Layer 2"><g id="Layer_1-2" data-name="Layer 1"><ellipse class="cls-1" cx="105.11" cy="82.41" rx="92.34" ry="82.41"/><ellipse class="cls-1" cx="34.05" cy="124.57" rx="34.05" ry="5.28"/><ellipse class="cls-1" cx="50.41" cy="152.26" rx="13.24" ry="2.74"/><ellipse class="cls-1" cx="140.91" cy="141.73" rx="13.24" ry="2.74"/><ellipse class="cls-1" cx="95.97" cy="138.52" rx="21.54" ry="3.65"/><ellipse class="cls-1" cx="159.42" cy="120.46" rx="44.92" ry="7.04"/><path class="cls-2" d="M9.31,108.18A12.5,12.5,0,0,0,10,120.73a3.19,3.19,0,0,0,1,1.14c1.4.54,4.19,1.89,4.19,1.89l6.73-2.64s1.1-5.78,2.13-10.75h0a61.8,61.8,0,0,1,1.66-6.91c.7-1.3,0-15.41,0-15.41S19,87.6,17.14,92.78l-.81,1.59Z"/><path class="cls-3" d="M18.25,109.74c4.09,4.69,5.81.64,5.81.64h0a60.69,60.69,0,0,1,1.67-6.92c.7-1.3,0-15.41,0-15.41S19,87.6,17.15,92.79l-.81,1.58C15.82,98.52,15.31,106.37,18.25,109.74Z"/><path class="cls-2" d="M19.14,122.81l23.76-2.74,4.24-27.89-3.21-7.24a29.27,29.27,0,0,0-5.54-8.36,17,17,0,0,0-5.61-4.16,8.69,8.69,0,0,0-.86-.29,2.2,2.2,0,0,0-2,.35c-2.93,2.07-4,10.9-4.32,15.15a47.94,47.94,0,0,1-.7,5.21Z"/><path class="cls-3" d="M35,91.88,30,104.06c2.59-1.9,6.44-12.23,6.44-12.23l3.44,11.78L37.15,91.2a39,39,0,0,0,.34-8.15c-.21-3.11-3.14-8.11-4.73-10.63a8.57,8.57,0,0,0-.85-.3,2.25,2.25,0,0,0-2,.35c1.24,2.51,4.36,8.77,5.31,10.63C36.45,85.45,35,91.88,35,91.88Z"/><path class="cls-2" d="M39,123.76H51.89a3.91,3.91,0,0,0,3.91-3.91,1.41,1.41,0,0,0,0-.2c-.28-5.52-1-15.38-2.72-21.63-.93-3.38-2-5.15-3-6a2.88,2.88,0,0,0-1.7-.8,2.19,2.19,0,0,0-1.39.33c-2.39,2.3-5.19,14.37-5.19,14.37Z"/><path class="cls-3" d="M50.9,113.05a6.36,6.36,0,0,1,0,4.83L48,119.29s-7.72-3.27-6.79-10c0,0,.26-1.39,2.92-1.28A7.52,7.52,0,0,1,50.9,113.05Z"/><path class="cls-3" d="M47.83,95.42C47.74,93.07,49,92.26,50.07,92a2.88,2.88,0,0,0-1.7-.8,4.51,4.51,0,0,0-1.49,2.37l-2.69,13.12S48,99.37,47.83,95.42Z"/><path class="cls-2" d="M35.61,105.8,42,114.53l1.11,7.21-4.1,2-5.92,1.31a5.59,5.59,0,0,1-1.73.11l-16.14-1.42,2.2-5.09L25,108Z"/><path class="cls-3" d="M33.14,102.8s4.35.3,2.72,7.79-18.46,8.08-18.46,8.08a44.1,44.1,0,0,1,9.07-10.88,20.73,20.73,0,0,0,1.78-1.6C29.52,104.92,31.94,102.7,33.14,102.8Z"/><path class="cls-4" d="M37.06,108.45a18.12,18.12,0,0,1,5.34,13.63"/><path class="cls-4" d="M47,91.53a41.24,41.24,0,0,0-6.88,20.91"/><path class="cls-4" d="M25.73,88s3,13.61-4.48,23.87"/><path class="cls-5" d="M80.32,138.45h32.29a1.81,1.81,0,0,0,1.8-1.82,1.78,1.78,0,0,0-.21-.85l-16.14-30a1.81,1.81,0,0,0-2.45-.73,1.86,1.86,0,0,0-.74.73l-16.14,30a1.8,1.8,0,0,0,.73,2.45A1.86,1.86,0,0,0,80.32,138.45ZM98.52,133H94.41v-4.11h4.11Zm0-6.85H94.41V117.9h4.11Z"/><path class="cls-4" d="M80.32,138.45h32.29a1.81,1.81,0,0,0,1.8-1.82,1.78,1.78,0,0,0-.21-.85l-16.14-30a1.81,1.81,0,0,0-2.45-.73,1.86,1.86,0,0,0-.74.73l-16.14,30a1.8,1.8,0,0,0,.73,2.45A1.86,1.86,0,0,0,80.32,138.45ZM98.52,133H94.41v-4.11h4.11Zm0-6.85H94.41V117.9h4.11Z"/><path class="cls-5" d="M80.32,139.44h32.29a1.81,1.81,0,0,0,1.8-1.82,1.78,1.78,0,0,0-.21-.85l-16.14-30a1.81,1.81,0,0,0-2.45-.73,1.86,1.86,0,0,0-.74.73l-16.14,30a1.8,1.8,0,0,0,.73,2.45A1.86,1.86,0,0,0,80.32,139.44ZM98.52,134H94.41v-4.11h4.11Zm0-6.85H94.41v-8.22h4.11Z"/><path class="cls-6" d="M62.58,123.29a2,2,0,0,0-.46-.22c-.53-.2-1.1-.25-1.63-.44a2.32,2.32,0,0,1-.81-.49l-.12-.12c.2-.12.38-.25.58-.36a6.89,6.89,0,0,0-2.39-2.38c.32-.47,1-.43,1.46-.81a1.35,1.35,0,0,0,.39-.78,5.24,5.24,0,0,0-.23-2.35A28.23,28.23,0,0,0,58,110.92a16.44,16.44,0,0,1-.74-1.79c-.52-1.71-.16-3.57-.55-5.31a3.79,3.79,0,0,1-.18-1.69c.21-.86,1.17-1.37,1.38-2.23a88.58,88.58,0,0,0,1.33-9.36,11.91,11.91,0,0,0,.16-1.79c0-.63-.11-1.26-.16-1.89a33.76,33.76,0,0,1,.39-5.3,5.75,5.75,0,0,1,.72,1.78,7.32,7.32,0,0,1,0,1.75,8.91,8.91,0,0,1-.13,1.17c-.09.46-.26.9-.38,1.36a4.23,4.23,0,0,0,.19,2.72c.27.6.86,1.15,1.48,1a1.61,1.61,0,0,0,.87-1,5.85,5.85,0,0,0,.53-4,11.69,11.69,0,0,1-.9-2.63,6.92,6.92,0,0,1,.09-1.11c.24-2.15-.29-4.31-.41-6.47a12.2,12.2,0,0,0-.11-1.89,1.42,1.42,0,0,0-.05-.22.37.37,0,0,1,.14.07,1.27,1.27,0,0,0,0-1.11,2.31,2.31,0,0,1-.18-.35c-.08-.2-.07-.43-.16-.62a1.79,1.79,0,0,0-.2-.28,2.3,2.3,0,0,1-.27-1.3q0-3.53-.2-7a11.24,11.24,0,0,0-.54-3.51,5.24,5.24,0,0,0-1.86-2.47,3.54,3.54,0,0,0-.41-.26,1.41,1.41,0,0,0,.11-.54.49.49,0,0,0,0-.17v-.1h0a4.26,4.26,0,0,0-.39-1.19,3.11,3.11,0,0,1-.38-1.3,1.93,1.93,0,0,1,0-.24h0c.07-.57.37-1.11.47-1.68a3.07,3.07,0,0,0,0-.53v-.19h0a5.45,5.45,0,0,0-.64-2c-.1-.2-.2-.4-.31-.59-.05-.38-.11-.75-.17-1.11s-.06-.43-.11-.64a2.82,2.82,0,0,0-.07-.31c.3-.29.13-.71-.07-1.11A9,9,0,0,1,55.9,43a7.53,7.53,0,0,0-.58-1.65,3.75,3.75,0,0,0-.63-1,3.68,3.68,0,0,0-.82-.6,2.45,2.45,0,0,0-.81-.36c-.18,0-.37,0-.55-.08l-.33-.12a2.25,2.25,0,0,0-.71-.26,1.59,1.59,0,0,0-.68.13,2.8,2.8,0,0,1-.74.2h-.28a.65.65,0,0,0-.38.09,1.29,1.29,0,0,0-.16.17,1.75,1.75,0,0,1-.48.32,4.7,4.7,0,0,0-2.3,4,2.35,2.35,0,0,1-.06.65c-.06.17-.17.31-.22.48a1.42,1.42,0,0,0,0,.46c0,.23,0,.46.06.69h0a1.62,1.62,0,0,0-.29.64h0s0,.08,0,.12v0h0a3.54,3.54,0,0,0,.3,1.18,4.19,4.19,0,0,1-.06,2.33,9.26,9.26,0,0,0-.4,1.59h0v0a2.17,2.17,0,0,0,.09.8c.07.18.17.34.23.53a2.18,2.18,0,0,1-.5,1.88h0c-.07.09-.13.18-.2.26h0l.41.29-.36.2a3.87,3.87,0,0,0-1.35.5,5.56,5.56,0,0,0-1.09.72,4.78,4.78,0,0,0-.85,1.19,12.74,12.74,0,0,0-.73,1.54A4.39,4.39,0,0,0,41,61.25c-.18.36-.32.75-.47,1.1l-.24.54L33.51,46.21l-1.06.44.09.2-.22.09.3.73-.13.09-.06,0-.11.09,0,0-.12.1,0,0-.14.13h0l-.44.43-.36.37-.07.08-.12.12-.06.07-.18.17h0l-.11.11-.06.06-.09.08-.08.08-.14.11,0,0-.18.14a4.43,4.43,0,0,1-.79.51c-1.09.56-2.23,1-3.29,1.63a9.17,9.17,0,0,0-1.63,1.14,13,13,0,0,1-2.1,1.84l-.09,0c-1.43.74-3.12.3-4.75.27h-.72A9.11,9.11,0,0,0,13,56.79c-.82.47-1.63,1-2.43,1.45-.52.3-1,.62-1.54.95a35.22,35.22,0,0,1-4,2.33,8.43,8.43,0,0,1-4,.88H1a2.58,2.58,0,0,1-.39,0c-.13,1,.7,1.88,1.25,2.79a2.77,2.77,0,0,1,.47,1.33,1.93,1.93,0,0,1,0,.53A6.71,6.71,0,0,0,2,68.92a2.17,2.17,0,0,0,.42,1c.35.51.84,1,1.17,1.48a7.68,7.68,0,0,1,.83,2.69A5.89,5.89,0,0,0,5.05,76a7.92,7.92,0,0,0,1.7,1.72l.33.29.23.23A2.63,2.63,0,0,1,8.13,81l-.05.09.11.07c.55.27,1.25-.16,1.7-.62.22-.23.44-.46.64-.7.55-.62,1.06-1.28,1.59-1.92l.43-.51a7.28,7.28,0,0,1,1.95-1.58,7.75,7.75,0,0,1,1.2-.49c.62-.2,1.25-.34,1.86-.54a14.71,14.71,0,0,0,2.46-1,36.69,36.69,0,0,0,4-2.45l.19-.13a6.33,6.33,0,0,0,1.18-.94,1.68,1.68,0,0,0,.18-.21c.31-.4.51-.87.8-1.28a4,4,0,0,1,1.11-1.07,16.42,16.42,0,0,1,4.29-1.59h0a16.64,16.64,0,0,0,6.76-4l1.09,2.65c-.12.32-.22.64-.32,1A7.53,7.53,0,0,1,38.36,68a1.84,1.84,0,0,0-.34.61,2.09,2.09,0,0,1-.08.5c-.07.13-.21.22-.27.36s0,.45-.08.64a1.19,1.19,0,0,1-.19.2,1.31,1.31,0,0,0-.36,1,3.39,3.39,0,0,1-.09,1.1l.26-.14a1.36,1.36,0,0,0,0,.2,2.1,2.1,0,0,0,.07.56,4.41,4.41,0,0,0,.57,1.15,9.4,9.4,0,0,0,.62.89,9.13,9.13,0,0,0,1.31,1.18l2,1.54-.2.83a24.07,24.07,0,0,0-.9,5.32,21.84,21.84,0,0,0,.17,2.55L41,88.2c.14,1.4.27,2.8.43,4.2A10.06,10.06,0,0,0,41.94,95c.47,1.27,0,2.7.15,4a7.07,7.07,0,0,1,.15,3.16c-.12.39-.34.77-.51,1.17a9,9,0,0,0-.48,3.11,13.52,13.52,0,0,0,.1,2.77,11.57,11.57,0,0,1,.48,2.83c-.11,1.37-1.1,2.53-1.22,3.9a5.68,5.68,0,0,0,.88,3.1c.37.71-.15,1.63-.35,2.41a6.17,6.17,0,0,0,1.07,4.5.21.21,0,0,0,.1.11c.09,0,.17-.06.23-.14l.12-.14a1.1,1.1,0,0,0,0,.18c0,.13,0,.26,0,.4a3.82,3.82,0,0,0,.27,1.46c0,.09.07.18.11.27a1.22,1.22,0,0,0,.2.32,1.2,1.2,0,0,0,.79.33,10.13,10.13,0,0,0,2-.12c.69-.06,1.39,0,2.09-.05a.29.29,0,0,0,.16,0,.28.28,0,0,0,.09-.14,1.58,1.58,0,0,0,0-.78c0-.21-.09-.41-.15-.62s-.18-.65-.26-1c0-.06,0-.12,0-.18h0L49.27,123a2.54,2.54,0,0,0,.33-1.53,4.58,4.58,0,0,0-.48-1,6,6,0,0,1-.42-2.64l0-5.09a11.21,11.21,0,0,0,2-4.32,14.06,14.06,0,0,1,.11,6.73,7,7,0,0,0-.19,1c-.07,1.41,1,2.61,1.32,4a.92.92,0,0,1,0,.33,1.22,1.22,0,0,1-.16.37,5.89,5.89,0,0,0-.4,3.23l.23,0a.67.67,0,0,0,.25.25h0a1.66,1.66,0,0,0,.31.12,7.44,7.44,0,0,0,1.15.18l1.68.15.66,0a7,7,0,0,1,.93.06,6.63,6.63,0,0,1,1,.29,6.36,6.36,0,0,0,4.46.16,1.89,1.89,0,0,0,.81-.58,1,1,0,0,0,0-1.35.85.85,0,0,0-.19-.14ZM43.43,66.85c.21.42.42.84.6,1.27a4.38,4.38,0,0,1,.33,2.66c-.06.26-.48.45-.48.72l0,.06-1.29-3.17A11.69,11.69,0,0,1,43.43,66.85ZM42,73.59a5.86,5.86,0,0,1-.7-1.21c0-.06-.05-.11-.07-.16a.52.52,0,0,0,.19-.14c.19-.25.09-.62.12-.94a2.07,2.07,0,0,1,.31-.79l1.22,3c-.13.32-.24.65-.35,1A8,8,0,0,1,42,73.59Z"/><path class="cls-5" d="M46.28,46.86a3.68,3.68,0,0,0,.31,1.19,4.16,4.16,0,0,1-.06,2.32,4.07,4.07,0,0,0-.31,2.41c.07.18.17.34.23.53a2.45,2.45,0,0,1-.71,2.16l1.95,1.37a2.21,2.21,0,0,0,1,.47.77.77,0,0,0,.87-.51c0-.12,0-.25,0-.38a1,1,0,0,1,.54-.76,1.85,1.85,0,0,1,1-.17c1.2.06,2.22.85,3.32,1.36a13.25,13.25,0,0,0,2.23.74,1.82,1.82,0,0,0,1.3,0,1.24,1.24,0,0,0,.55-1.17,3.69,3.69,0,0,0-.42-1.29,3.43,3.43,0,0,1-.38-1.3,10.21,10.21,0,0,1,.49-1.92,4.41,4.41,0,0,0-.61-2.72,10.94,10.94,0,0,1-1.15-2.57,3.73,3.73,0,0,0-.22-.81,1.87,1.87,0,0,0-.39-.53A4.42,4.42,0,0,0,53,44.13a12.31,12.31,0,0,0-3.08.27,5.56,5.56,0,0,0-1.14.27,7.32,7.32,0,0,0-1.51.81A2,2,0,0,0,46.28,46.86Z"/><g class="cls-7"><path d="M57.66,53.43a.47.47,0,0,0,0,.17c.06-.58.36-1.12.47-1.7a2.8,2.8,0,0,0,0-.71,1.65,1.65,0,0,1,0,.31A11.15,11.15,0,0,0,57.66,53.43Z"/><path d="M46.72,48.84a3.43,3.43,0,0,0-.13-1.19,7.54,7.54,0,0,1-.29-.92.5.5,0,0,1,0,.12A3.61,3.61,0,0,0,46.59,48,3.11,3.11,0,0,1,46.72,48.84Z"/><path d="M58.45,56.31a1.14,1.14,0,0,1-.53.87,1.75,1.75,0,0,1-1.31,0,13.56,13.56,0,0,1-2.23-.74c-1.09-.5-2.11-1.29-3.31-1.36a1.73,1.73,0,0,0-1,.18,1,1,0,0,0-.55.76c0,.12,0,.25,0,.37a.79.79,0,0,1-.87.52,2.24,2.24,0,0,1-1-.48L45.93,55.2l-.2.25,2,1.38a2.12,2.12,0,0,0,1,.47.79.79,0,0,0,.87-.51c0-.12,0-.25,0-.38a1,1,0,0,1,.55-.76,1.81,1.81,0,0,1,1-.17c1.2.06,2.22.85,3.31,1.36a13.56,13.56,0,0,0,2.23.74,1.85,1.85,0,0,0,1.31,0,1.25,1.25,0,0,0,.54-1.17S58.45,56.34,58.45,56.31Z"/><path d="M46.45,53.3a2,2,0,0,1,0,.24,1.55,1.55,0,0,0,0-.64c-.06-.18-.16-.35-.23-.53a1.43,1.43,0,0,1-.09-.41,1.86,1.86,0,0,0,.09.81C46.29,53,46.39,53.12,46.45,53.3Z"/></g><path class="cls-5" d="M48.77,128.41a.23.23,0,0,1-.09.14.29.29,0,0,1-.16,0c-.7,0-1.41,0-2.11,0a9.6,9.6,0,0,1-2,.12,1,1,0,0,1-1-.65l-.11-.27a4,4,0,0,1-.27-1.46V126a3.18,3.18,0,0,0-.06-.43.67.67,0,0,1,0-.5,1.77,1.77,0,0,1,1.49-.65,11.83,11.83,0,0,1,3.61.26c.09.46.2.91.31,1.36s.17.66.26,1a6.23,6.23,0,0,1,.15.62A1.59,1.59,0,0,1,48.77,128.41Z"/><path class="cls-8" d="M48.77,128.41a.23.23,0,0,1-.09.14.29.29,0,0,1-.16,0c-.7,0-1.41,0-2.11,0a9.6,9.6,0,0,1-2,.12,1,1,0,0,1-1-.65l-.11-.27h.26l2.5,0a6.28,6.28,0,0,0,.75,0l.68-.1c.35,0,.69,0,1,0h.28A1.58,1.58,0,0,1,48.77,128.41Z"/><path class="cls-5" d="M63.35,124.74a2.06,2.06,0,0,1-.82.57,6.44,6.44,0,0,1-4.49-.15,7.12,7.12,0,0,0-1-.29,7.43,7.43,0,0,0-.94-.07c-.22,0-.45,0-.67,0-.57,0-1.13-.09-1.69-.14a7.69,7.69,0,0,1-1.17-.18,1.2,1.2,0,0,1-.31-.13h0a.46.46,0,0,1-.28-.42c0-.25.27-.4.5-.51a24.94,24.94,0,0,1,6.45-1.57,2.22,2.22,0,0,0,.65-.2c.25-.09.27.07.39.25a2.2,2.2,0,0,0,.2.23,2.4,2.4,0,0,0,.83.49c.53.19,1.1.25,1.64.44a2.15,2.15,0,0,1,.46.22,1,1,0,0,1,.38,1.29,1.43,1.43,0,0,1-.14.2Z"/><path class="cls-8" d="M63.35,124.74a2.06,2.06,0,0,1-.82.57,6.44,6.44,0,0,1-4.49-.15,7.12,7.12,0,0,0-1-.29,7.43,7.43,0,0,0-.94-.07c-.22,0-.45,0-.67,0l.56-.5a1.54,1.54,0,0,1,.47-.31,1.34,1.34,0,0,1,.66,0c1.14.16,2.15,1,3.3.89a4.25,4.25,0,0,0,1.51-.49,2.69,2.69,0,0,0,1-.71,1.06,1.06,0,0,0,.18-.35,1,1,0,0,1,.39,1.29,1.43,1.43,0,0,1-.14.2Z"/><path class="cls-9" d="M63,90.33a1.62,1.62,0,0,1-.88,1c-.62.18-1.22-.38-1.49-1a4.2,4.2,0,0,1-.2-2.73c.12-.46.29-.9.39-1.35a7.74,7.74,0,0,0,.12-1.17,6.91,6.91,0,0,0,0-1.76c-.32-1.7-1.78-3-2.27-4.64a9,9,0,0,1-.22-2.59,3,3,0,0,1,.07-.66.7.7,0,0,1,.06-.17c.33-.72,1.29-.82,2-1.24.37-.23,1.21-1,1.53-.3a2.44,2.44,0,0,1,.15.48,13.43,13.43,0,0,1,.11,1.88c.12,2.17.66,4.32.41,6.47a6.92,6.92,0,0,0-.09,1.11,11.69,11.69,0,0,0,.9,2.63A5.67,5.67,0,0,1,63,90.33Z"/><path class="cls-4" d="M62.15,74.19a.72.72,0,0,0-.46,0l-1.34.4a8.28,8.28,0,0,0-1.37.49,3.77,3.77,0,0,0-.54.34.58.58,0,0,1,.06-.17c.33-.72,1.29-.82,2-1.24.37-.24,1.21-1,1.53-.3A1.92,1.92,0,0,1,62.15,74.19Z"/><path class="cls-5" d="M62.23,74a.57.57,0,0,0-.54,0l-1.34.39a8.31,8.31,0,0,0-1.37.5,3,3,0,0,0-.65.42,8.79,8.79,0,0,1-.9-3.62c-.07-.73-.11-1.46-.14-2.18a10.16,10.16,0,0,1,0-1.56c.07-.59.25-1.17.35-1.76a7.53,7.53,0,0,0,.13-1,10.35,10.35,0,0,0-.11-2.29,13.92,13.92,0,0,0-.55-2.38c-.13-.35-.28-.69-.42-1l0-.13a14.41,14.41,0,0,1-.62-2c-.06-.27-.06-.56-.27-.74a2.88,2.88,0,0,1,.59,0h.12a4.46,4.46,0,0,1,2.26.79,5.33,5.33,0,0,1,1.88,2.49,11.2,11.2,0,0,1,.54,3.51c.11,2.34.17,4.68.2,7a2.23,2.23,0,0,0,.28,1.3,2.9,2.9,0,0,1,.19.29c.1.2.08.42.16.62a2.27,2.27,0,0,0,.19.34A1.27,1.27,0,0,1,62.23,74Z"/><path class="cls-9" d="M49.06,50.8l-.6-.2.42,0A.9.9,0,0,1,49.06,50.8Z"/><path class="cls-9" d="M57.16,58a2.52,2.52,0,0,1-.12.39,7.17,7.17,0,0,1-.36.95,4.6,4.6,0,0,1-.94,1.36,1.14,1.14,0,0,1-.47.31,1.75,1.75,0,0,1-.46,0l-1.58,0A5,5,0,0,1,52,60.86a4.27,4.27,0,0,1-1.25-.56,7.43,7.43,0,0,1-3.22-4,.67.67,0,0,1,0-.63.82.82,0,0,1,.5-.17h0a3.06,3.06,0,0,0,1.2-.41,1.24,1.24,0,0,0,.55-.56,1.47,1.47,0,0,0,0-.88l-.44-2a1.92,1.92,0,0,0-.35-.89l.4.12c1.22.33,2.56.13,3.76.56a1.6,1.6,0,0,1,1.06.95c.23.79-.54,1.61-.32,2.4a2,2,0,0,0,1.19,1.1l.33.17.91.46.13.07h0a1.21,1.21,0,0,1,.69.64A1.07,1.07,0,0,1,57.16,58Z"/><path class="cls-4" d="M59.58,62.59a4.35,4.35,0,0,1-.36,1.47,6,6,0,0,0-.63,2.57c-.15,2.68-1.17,5.86.29,8.1l.1.17a3.44,3.44,0,0,0-.65.42,8.75,8.75,0,0,1-.9-3.62c-.07-.73-.11-1.45-.14-2.18a10.16,10.16,0,0,1,0-1.56c.07-.59.25-1.17.35-1.76a7.35,7.35,0,0,0,.13-1,10.35,10.35,0,0,0-.11-2.29,13.92,13.92,0,0,0-.55-2.38c-.13-.35-.28-.69-.42-1l0-.12a4.68,4.68,0,0,1-.94,1.35,1.14,1.14,0,0,1-.47.31,1.41,1.41,0,0,1-.46.05l-1.58,0A5,5,0,0,1,52,60.88a4.27,4.27,0,0,1-1.25-.56,7.39,7.39,0,0,1-3.22-4,.64.64,0,0,1,0-.62.77.77,0,0,1,.5-.18h0l1.78,2.21a3.32,3.32,0,0,1,.51.77.46.46,0,0,0,.16.23.45.45,0,0,0,.2,0h5.57a1.47,1.47,0,0,0-.24-.84c-.05,0-.12,0,0,0a5.54,5.54,0,0,0-.61-1.84L55.4,56a2.18,2.18,0,0,1-.29-.64,1,1,0,0,1,.65,0,1,1,0,0,1,.47.61l.27.62s0,0,0,.06A4.16,4.16,0,0,1,56.85,58c0,.16,0,.37.19.42l.07,0a.75.75,0,0,1,.81.19,1.85,1.85,0,0,1,.39.78,4.87,4.87,0,0,0,.28.84c.26.49-.13.71.33,1a1.66,1.66,0,0,1,.54.48A1.56,1.56,0,0,1,59.58,62.59Z"/><path class="cls-4" d="M48.08,124.67c.1.45.2.91.31,1.36v0a9.46,9.46,0,0,0-2.82-.89A3.15,3.15,0,0,0,43,126a2.1,2.1,0,0,0-.05-.43.62.62,0,0,1,0-.5,1.76,1.76,0,0,1,1.48-.66A12.16,12.16,0,0,1,48.08,124.67Z"/><path class="cls-4" d="M55.88,58.34c.09,0,.06,0,0,0S55.77,58.37,55.88,58.34Z"/><path class="cls-4" d="M60.18,122.1A18.45,18.45,0,0,0,57.7,124a2.46,2.46,0,0,1-.78.57,2.29,2.29,0,0,1-.94.1,30.83,30.83,0,0,1-3.72-.37h0a.46.46,0,0,1-.28-.42c0-.25.27-.4.5-.51a24.94,24.94,0,0,1,6.45-1.57,2.22,2.22,0,0,0,.65-.2c.25-.09.27.07.39.25A1.51,1.51,0,0,0,60.18,122.1Z"/><path class="cls-10" d="M45.66,56c.29.26.62.47.92.72a8.35,8.35,0,0,1,1.78,2.52,1.66,1.66,0,0,1-.91.07A6.35,6.35,0,0,0,47.53,62a2.45,2.45,0,0,0-.89,1.1,7.31,7.31,0,0,0-.29,1.39q-.42,3.09-.86,6.18a.92.92,0,0,1-.19.55l-.16.15a.79.79,0,0,0-.06.43c0,.14-.11.31-.26.29a.25.25,0,0,1-.17-.11,3.72,3.72,0,0,1-.4-.49,31.89,31.89,0,0,0-2.35,7.11A22.88,22.88,0,0,0,41,83.9a24.24,24.24,0,0,0,.16,2.55l.17,1.74c.14,1.39.29,2.79.44,4.19A11.05,11.05,0,0,0,42.28,95c.48,1.27-.05,2.7.15,4a7,7,0,0,1,.16,3.15c-.13.41-.35.78-.51,1.17a8.81,8.81,0,0,0-.49,3.11,13.47,13.47,0,0,0,.1,2.77,11.19,11.19,0,0,1,.48,2.84c-.1,1.36-1.11,2.53-1.23,3.89a5.69,5.69,0,0,0,.89,3.1c.38.71-.15,1.63-.35,2.41a6.18,6.18,0,0,0,1.07,4.5.22.22,0,0,0,.11.1c.09,0,.17,0,.23-.13a3,3,0,0,1,2.68-1,9,9,0,0,1,2.82.9L49.67,123a2.54,2.54,0,0,0,.33-1.53,4.42,4.42,0,0,0-.49-1,6.19,6.19,0,0,1-.42-2.64l0-5.09a11.24,11.24,0,0,0,2-4.32,13.93,13.93,0,0,1,.12,6.73,6,6,0,0,0-.2,1c-.08,1.41,1,2.6,1.32,4a.93.93,0,0,1,0,.33,1,1,0,0,1-.17.37,5.8,5.8,0,0,0-.39,3.23,32.87,32.87,0,0,0,4.2.45,2.31,2.31,0,0,0,.94-.1,2.57,2.57,0,0,0,.78-.57,17.64,17.64,0,0,1,2.94-2.23,6.73,6.73,0,0,0-2.4-2.37c.32-.47,1-.44,1.47-.81a1.38,1.38,0,0,0,.39-.78,5.23,5.23,0,0,0-.23-2.35,28,28,0,0,0-1.38-4.42,15.42,15.42,0,0,1-.75-1.79c-.52-1.71-.16-3.57-.55-5.31a3.79,3.79,0,0,1-.19-1.69c.22-.86,1.19-1.37,1.41-2.23a88.77,88.77,0,0,0,1.33-9.35,12,12,0,0,0,.16-1.8c0-.63-.11-1.26-.16-1.89-.18-2.52.63-5,.42-7.55a9.49,9.49,0,0,0-1.48-4.35c-1.46-2.25-.44-5.43-.29-8.1A5.91,5.91,0,0,1,59,64.24a4.3,4.3,0,0,0,.37-1.46,1.57,1.57,0,0,0-.11-.93,1.59,1.59,0,0,0-.55-.48c-.46-.3-.07-.52-.32-1a4.14,4.14,0,0,1-.28-.84,1.82,1.82,0,0,0-.4-.78.74.74,0,0,0-.81-.19c-.19,0-.24-.25-.25-.44a6.28,6.28,0,0,0-.62-2,1.1,1.1,0,0,0-.48-.61,1,1,0,0,0-.65,0,2.18,2.18,0,0,0,.29.64,5.4,5.4,0,0,1,.68,1.95c-.2.06.2,0,0,0a1.36,1.36,0,0,1,.26.85H50.56a.43.43,0,0,1-.19,0,.41.41,0,0,1-.16-.23,3.36,3.36,0,0,0-.52-.77l-2-2.42a.5.5,0,0,0-.17-.15.49.49,0,0,0-.24,0A4.39,4.39,0,0,0,45.66,56Z"/><path class="cls-4" d="M52.69,88.79a1.89,1.89,0,0,1,1,.25,1,1,0,0,1,.48.84,2.19,2.19,0,0,1-.51,1,2.77,2.77,0,0,0-.31.62.22.22,0,0,0,0,.16c0,.08.1.11.17.15a1.48,1.48,0,0,1,.87,1.3c0,.77-.77,1.39-.73,2.17a3.86,3.86,0,0,0,.09.49,3.72,3.72,0,0,1-.27,1.95c-.24.63-.57,1.21-.82,1.83a12.86,12.86,0,0,0-.8,5.34,10,10,0,0,1-.79,3.59,49.91,49.91,0,0,0,.18-7.13c0-.64-.11-1.25-.08-1.9.05-1,.62-2,.77-3a14.44,14.44,0,0,0,0-1.74c0-1.19.35-2.36.37-3.56A4.58,4.58,0,0,1,52.69,88.79Z"/><path class="cls-5" d="M44.43,56.46a5.68,5.68,0,0,0-1.1.73,4.58,4.58,0,0,0-.86,1.19,14.37,14.37,0,0,0-.74,1.53,3.44,3.44,0,0,0-.32,2.15,7.62,7.62,0,0,0,1,1.71,15,15,0,0,1,.8,1.88c.35.83.83,1.61,1.17,2.45a4.38,4.38,0,0,1,.34,2.66c-.07.25-.48.45-.48.72,0,.43.63.91,1,1a1.57,1.57,0,0,0,1.4-.39,5.17,5.17,0,0,0,1.49-2.3,23.37,23.37,0,0,0,1-4.31c.18-1.08.35-2.15.45-3.23a8.17,8.17,0,0,0-.14-2.92,5,5,0,0,0-1.35-2.24,3.77,3.77,0,0,0-2.11-1.18A3.48,3.48,0,0,0,44.43,56.46Z"/><path class="cls-9" d="M50.06,80.33a1,1,0,0,1-.44.66,3,3,0,0,1-.76.31,3.25,3.25,0,0,1-1.63.16,3.32,3.32,0,0,1-1.14-.65l-6-4.59A8.2,8.2,0,0,1,38.77,75a9.25,9.25,0,0,1-.62-.88A4.35,4.35,0,0,1,37.57,73a1.76,1.76,0,0,1-.07-.56,1,1,0,0,1,.12-.51,1.05,1.05,0,0,1,.71-.35,7.39,7.39,0,0,1,2.61-.2.35.35,0,0,1,.35.24q.2.36.36.75a5.65,5.65,0,0,0,.71,1.21,11.77,11.77,0,0,0,.88.85c.64.59,1.15,1.3,1.83,1.85a14.92,14.92,0,0,0,2.62,1.47,4.9,4.9,0,0,1,2.22,2A1.31,1.31,0,0,1,50.06,80.33Z"/><path class="cls-4" d="M57,48.31a4.93,4.93,0,1,1-.14-1.14A4.91,4.91,0,0,1,57,48.31Z"/><path class="cls-9" d="M57,48.12A4.91,4.91,0,1,1,56.86,47,4.91,4.91,0,0,1,57,48.12Z"/><path class="cls-4" d="M41.65,72.36a1.12,1.12,0,0,1-.83,0,5.3,5.3,0,0,0-3.32,0,1,1,0,0,1,.12-.51,1.05,1.05,0,0,1,.71-.35,7.39,7.39,0,0,1,2.61-.2.35.35,0,0,1,.35.24C41.42,71.85,41.54,72.11,41.65,72.36Z"/><path class="cls-5" d="M39.59,65.69A8,8,0,0,1,38.67,68a1.7,1.7,0,0,0-.35.61,2.64,2.64,0,0,1-.08.49c-.07.14-.21.23-.27.36s0,.46-.09.64a.61.61,0,0,1-.19.2,1.41,1.41,0,0,0-.34,1,3.31,3.31,0,0,1-.09,1.09,4.85,4.85,0,0,1,3.56-.17c.33.07.74.12,1-.14s.09-.61.12-.93A3.61,3.61,0,0,1,42.4,70c.2-.43.26-.9.42-1.35a22.26,22.26,0,0,1,1.42-2.57,2.41,2.41,0,0,0,.28-1,2.87,2.87,0,0,0-.34-1.27,17.57,17.57,0,0,0-1.46-2.61c-.25-.37-.69-1.06-1.08-.46a12.32,12.32,0,0,0-.75,1.6A29.41,29.41,0,0,0,39.59,65.69Z"/><path class="cls-5" d="M57.45,58a4,4,0,0,1-3.21-1.26.72.72,0,0,1-.14-.24.46.46,0,0,1,.09-.32c.24-.37.65-.61.84-1a3.07,3.07,0,0,0,.14-1.28c0-.78.34-1.54.37-2.3a2.94,2.94,0,0,0,0-.59,3.61,3.61,0,0,1-.16-.87c0-.58.54-1,.63-1.61a2,2,0,0,0-1.1-1.78A6.38,6.38,0,0,0,53.37,46a5.14,5.14,0,0,0-1-.25,3.92,3.92,0,0,0-1.89.22,3.2,3.2,0,0,0-.71.37.89.89,0,0,0-.31.33,1,1,0,0,0-.09.47,5.12,5.12,0,0,1-.3,2.38,12.43,12.43,0,0,0-.7,1.08,1.89,1.89,0,0,0-.13.52,5.25,5.25,0,0,0,0,.56,5.85,5.85,0,0,0,.53,3,7.35,7.35,0,0,1,.51.85,1,1,0,0,1-.05,1,1,1,0,0,1-.39.3,3.18,3.18,0,0,1-2.53.09A3.21,3.21,0,0,0,47,53.33a2.18,2.18,0,0,1-.27-.79,2.09,2.09,0,0,1,.2-.73,4,4,0,0,0,.12-2.32,8.61,8.61,0,0,1-.37-1.41A4.43,4.43,0,0,1,46.74,47a3.55,3.55,0,0,1,2.44-2.81l.31-.1A6.52,6.52,0,0,1,51,43.93a10.85,10.85,0,0,1,3.27.22,4.44,4.44,0,0,1,1.7.87,3,3,0,0,1,.82,1.08,3.83,3.83,0,0,1,.23.75c0,.21.08.42.11.64a14.48,14.48,0,0,1,.23,4.59c-.11.6-.28,1.19-.36,1.8A10.77,10.77,0,0,0,57.45,58Z"/><circle class="cls-11" cx="50.41" cy="59.6" r="0.37"/><circle class="cls-11" cx="56.63" cy="59.42" r="0.37"/><path class="cls-4" d="M50.41,41l-.79-1.5.17-.16a.63.63,0,0,1,.38-.09Z"/><path class="cls-4" d="M52.6,39.17l-.9,1.32L51.19,39a1.63,1.63,0,0,1,.69-.13A2.08,2.08,0,0,1,52.6,39.17Z"/><g class="cls-7"><path d="M49.19,56.13a1,1,0,0,1-.39.3,3.18,3.18,0,0,1-2.25.18,2.68,2.68,0,0,1-.28.3,3.14,3.14,0,0,0,2.53-.09,1,1,0,0,0,.39-.29.84.84,0,0,0,.13-.69A.64.64,0,0,1,49.19,56.13Z"/><path d="M47.05,49.5a4.18,4.18,0,0,1,.11.79,4.33,4.33,0,0,0-.11-1.19,7,7,0,0,1-.37-1.41,1.09,1.09,0,0,0,0-.18,3.77,3.77,0,0,0,0,.58A7.15,7.15,0,0,0,47.05,49.5Z"/><path d="M57.29,52.09a8.34,8.34,0,0,0,.11-1.58,7.85,7.85,0,0,1-.11,1.18c-.1.6-.28,1.19-.35,1.8a5.32,5.32,0,0,0,0,1,5.87,5.87,0,0,1,0-.59C57,53.28,57.19,52.69,57.29,52.09Z"/><path d="M47,52.94a2.9,2.9,0,0,1-.25-.61.76.76,0,0,0,0,.21,2.13,2.13,0,0,0,.28.8,3.09,3.09,0,0,1,.24,1A3.11,3.11,0,0,0,47,52.94Z"/><path d="M55.49,51a2.51,2.51,0,0,1,0,.27V51.2a2.83,2.83,0,0,0,0-.58c-.05-.21-.12-.41-.15-.62a.59.59,0,0,0,0,.14A3.8,3.8,0,0,0,55.49,51Z"/><path d="M54.24,56.34l-.08-.1a.42.42,0,0,0-.06.27.79.79,0,0,0,.14.23A4,4,0,0,0,57.45,58c0-.13-.07-.26-.1-.39A4,4,0,0,1,54.24,56.34Z"/><path d="M56,48.17v0a2,2,0,0,0-1.1-1.79,6.45,6.45,0,0,0-1.5-.77,4.29,4.29,0,0,0-1-.24,3.85,3.85,0,0,0-1.9.21,2.93,2.93,0,0,0-.7.37,1.12,1.12,0,0,0-.32.33,1.09,1.09,0,0,0-.08.47v.4a1.09,1.09,0,0,1,.08-.47.92.92,0,0,1,.32-.33,3.37,3.37,0,0,1,.7-.38,4.1,4.1,0,0,1,1.9-.21,4.88,4.88,0,0,1,1,.25,6.45,6.45,0,0,1,1.5.77A2.39,2.39,0,0,1,56,48.17Z"/><path d="M49.06,49.12a11.08,11.08,0,0,0-.7,1.08,1.89,1.89,0,0,0-.13.52,5.25,5.25,0,0,0,0,.56v.4a5.12,5.12,0,0,1,0-.56,1.8,1.8,0,0,1,.13-.52,10.59,10.59,0,0,1,.7-1.09,3.9,3.9,0,0,0,.3-1.95A3.37,3.37,0,0,1,49.06,49.12Z"/></g><path class="cls-4" d="M57,46.86a.31.31,0,0,1-.09.11,1.09,1.09,0,0,1-.23.14c-.58.25-.55-.57-.85-.85a1,1,0,0,0-.67-.19L53.37,46c-1,0-1.94-.06-2.9,0-.47,0-.93,0-1.39,0a3.88,3.88,0,0,0-1.56.36,1.7,1.7,0,0,0-.42.33c-.11.12-.23.27-.38.3a3.58,3.58,0,0,1,2.45-2.81A4.9,4.9,0,0,1,55.9,45a3,3,0,0,1,.82,1.08A3.83,3.83,0,0,1,57,46.86Z"/><path class="cls-12" d="M56.63,46.71c-.58.25-.55-.56-.85-.84a1,1,0,0,0-.67-.2,52.75,52.75,0,0,0-6-.05,2.86,2.86,0,0,0-2,.68c-.12.14-.25.31-.43.31-.07-.4-.11-.81-.14-1.22a1.36,1.36,0,0,1,0-.45c.05-.17.17-.32.22-.48a1.82,1.82,0,0,0,.06-.65,4.69,4.69,0,0,1,2.31-4,2,2,0,0,0,.48-.33l.17-.17a.63.63,0,0,1,.38-.09h.28a2.31,2.31,0,0,0,.74-.19,1.67,1.67,0,0,1,.69-.14,2.58,2.58,0,0,1,.72.26,1.51,1.51,0,0,0,.33.13c.18,0,.37,0,.55.07a2.73,2.73,0,0,1,.82.36,4.12,4.12,0,0,1,.82.6,3.6,3.6,0,0,1,.64,1,7.85,7.85,0,0,1,.6,1.64,9,9,0,0,0,.46,2.45C57.05,45.92,57.26,46.44,56.63,46.71Z"/><path class="cls-4" d="M46.59,46.09s4.11-3.73,10.22-.64C56.81,45.45,49.91,43.88,46.59,46.09Z"/><path class="cls-13" d="M1.88,65.17c-.56-.92-1.4-1.76-1.27-2.79A8.22,8.22,0,0,0,5,61.53,35.12,35.12,0,0,0,9,59.2c.52-.32,1-.65,1.55-.94.82-.47,1.63-1,2.46-1.45a9.29,9.29,0,0,1,3.73-1.29,5.93,5.93,0,0,1,.73,0c1.64,0,3.35.48,4.79-.26l.09-.05a13.07,13.07,0,0,0,2.12-1.83,8.9,8.9,0,0,1,1.64-1.14c1.07-.6,2.22-1.07,3.31-1.63a4.64,4.64,0,0,0,.79-.51l.19-.15,0,0,.14-.12.08-.07.09-.08.07-.06.1-.11h0l.17-.17.07-.07.12-.13.07-.07.36-.37.44-.43h0l.14-.12,0,0,.11-.09.05-.05.12-.09,0,0,.17-.12.17-.1-.37-.89,1.06-.44L48.45,81.87l-1.06.44L39,61.92l-.06.06A16.8,16.8,0,0,1,32,66.11h0a16.31,16.31,0,0,0-4.33,1.57,4.26,4.26,0,0,0-1.12,1.08c-.29.41-.49.88-.79,1.27a2,2,0,0,1-.18.21,6.8,6.8,0,0,1-1.19,1l-.19.12a37.66,37.66,0,0,1-4,2.46,16.71,16.71,0,0,1-2.47,1c-.62.2-1.26.34-1.88.54a6.63,6.63,0,0,0-1.21.48A9,9,0,0,0,12,78.15c-.66.8-1.3,1.65-2,2.38-.46.46-1.16.89-1.71.62l-.11-.06,0-.09a2.64,2.64,0,0,0-.82-2.79L7.14,78l-.34-.3A7.92,7.92,0,0,1,5.09,76a5.65,5.65,0,0,1-.65-1.86,7.83,7.83,0,0,0-.84-2.69c-.33-.52-.83-1-1.19-1.48a2.08,2.08,0,0,1-.43-1A6.1,6.1,0,0,1,2.31,67a3.08,3.08,0,0,0,0-.53A2.84,2.84,0,0,0,1.88,65.17Z"/><rect class="cls-14" x="39.75" y="45.31" width="1.13" height="37.9" transform="translate(-21.45 20.21) rotate(-22.4)"/><path class="cls-15" d="M4,71.31A7.61,7.61,0,0,1,4.77,74a5.72,5.72,0,0,0,.65,1.83A8.11,8.11,0,0,0,7.1,77.46l.33.3.23.21a2.59,2.59,0,0,1,.81,2.74.41.41,0,0,1-.05.09.6.6,0,0,0,.11.06c.55.27,1.24-.15,1.69-.6.72-.72,1.34-1.56,2-2.35a8.64,8.64,0,0,1,2.57-2.29A7.18,7.18,0,0,1,16,75.15c.61-.2,1.23-.34,1.84-.53a16.72,16.72,0,0,0,2.44-1,39.15,39.15,0,0,0,3.91-2.42l.19-.12a7.47,7.47,0,0,0,1.17-.93l.18-.21c.31-.39.51-.85.79-1.25a4.11,4.11,0,0,1,1.1-1.06,16.5,16.5,0,0,1,4.26-1.55h0A16.6,16.6,0,0,0,38.71,62a1.15,1.15,0,0,0,.34-.5,1.17,1.17,0,0,0-.23-.8c-.17-.29-.34-.58-.5-.87a38.6,38.6,0,0,1-2-4.11c-.13-.31-.25-.61-.36-.92-.3-.8-.58-1.6-.82-2.41L35,51.58s0-.1,0-.16c-.33-1.32-.77-4.41-2.12-3.49a8,8,0,0,0-1.12,1c-.27.27-.52.55-.79.81s-.46.42-.7.61a5.51,5.51,0,0,1-.79.5c-1.08.55-2.22,1-3.26,1.6a9.53,9.53,0,0,0-1.62,1.12,12.68,12.68,0,0,1-2.08,1.81l-.09,0c-1.42.72-3.09.28-4.71.25-.24,0-.48,0-.71,0a9.09,9.09,0,0,0-3.67,1.27c-.82.45-1.62,1-2.42,1.42-.5.29-1,.61-1.52.93a35.23,35.23,0,0,1-4,2.29A8.17,8.17,0,0,1,1,62.41c-.13,1,.7,1.85,1.25,2.74a2.79,2.79,0,0,1,.46,1.31,1.86,1.86,0,0,1,0,.52,6.8,6.8,0,0,0-.32,1.88,2.23,2.23,0,0,0,.43,1C3.14,70.35,3.62,70.79,4,71.31Z"/><path class="cls-9" d="M44.2,75.43a17.31,17.31,0,0,0,3.49,2.32c1.76.8.6,3.69.6,3.69a3.19,3.19,0,0,1-3.17-1.38A7.36,7.36,0,0,1,44.2,75.43Z"/><path class="cls-16" d="M137.65,101.17s-4.6,6-8.41,6.1-6.05,2.54-4.24,4.1,21.53-.89,21.53-.89.19-7.43-1.52-8.51S137.65,101.17,137.65,101.17Z"/><path class="cls-16" d="M187,108.43s.7,4.79-1.47,8,3.92,4.52,3.92,4.52,4.43,1.24,4.75-3.14.22-7.72-.2-8.08-.76-2.81-.76-2.81Z"/><path class="cls-2" d="M117.5,117.47s-.16-15.48,15.16-21.78l3.56-6.76,1.71-4.16a10.09,10.09,0,0,1,7.14-6l2.76-.62.85-3.6a10.14,10.14,0,0,1,8.08-7.63,28,28,0,0,1,5.09-.47,4.36,4.36,0,0,1,3.72,2.18h0s14.51-.16,15.16,7.74c0,0,1.45,7.25,3.55,8.55,0,0,3.54-.81,7.09,4.35l3.87,13.22s10.16,9.52,7.1,18.22c0,0-4.2,6-25.48,1.93,0,0-22.74,6.93-34.84-2.57C142,120.05,121.86,123.92,117.5,117.47Z"/><path class="cls-17" d="M127.66,115.05s3.23-4.52,3.07-7.74a100.62,100.62,0,0,1,.76-11.09"/><path class="cls-17" d="M139.43,103s3.23-6,2.91-9.19c0,0,3.38-6.13,6-5.64"/><path class="cls-17" d="M157.17,86s8.87-3.22,9.36-5.8"/><path class="cls-17" d="M160.4,93.44s9.35-4.19,9.35-5.32h4.68s6.77,8.87,6,12.74"/><path class="cls-17" d="M171.37,99.89s-9-.64-12.26,1.94-9,3.87-9,3.87-3.39,7.25-4.68,8.54-3.39,5.81-3.39,5.81"/><path class="cls-17" d="M171.37,108.44a23.54,23.54,0,0,0,2.25,5.32c1.29,1.94,3.23,8.87,3.23,8.87"/><path class="cls-17" d="M186.52,118.27s2,5.7,3.85,5.76"/><path class="cls-17" d="M173.12,93.83s5.31,1.44,7.54,4.92,9,6.64,9,6.64"/><path class="cls-17" d="M175.4,76.67s0,7.42,2.09,7.42a59.17,59.17,0,0,1,6.78.81"/><path class="cls-17" d="M165.12,67.86s-.53,12.82-3.28,16.14"/><g class="cls-18"><path d="M194.91,102.31,191,89.09c-3.55-5.17-7.1-4.36-7.1-4.36-2.09-1.29-3.54-8.55-3.54-8.55-.65-7.9-15.16-7.74-15.16-7.74h0a4.41,4.41,0,0,0-3.73-2.18c-.69,0-1.39,0-2.09.08.4,0,.78.1,1.14.17l1.13,1.94s14.51-.16,15.16,7.74c0,0,1.45,7.26,3.55,8.55,0,0,3.54-.81,7.09,4.35l3.87,13.23s10.16,9.51,7.1,18.21c0,0-2.07,2.94-10.68,3.3,11.6.42,14.22-3.3,14.22-3.3C205.07,111.82,194.91,102.31,194.91,102.31Z"/><path d="M138.14,119.89A76.07,76.07,0,0,1,127.81,121a66.47,66.47,0,0,0,10.95-.66Z"/><path d="M173,122.47a66.06,66.06,0,0,1-15.23,2.4,64.87,64.87,0,0,0,17.38-2Z"/></g><path class="cls-2" d="M44.12,147.62s4.43-.14,5.77-1.09,6.82-2.09,7.15-.56,6.67,7.59,1.66,7.63-11.64-.78-13-1.59S44.12,147.62,44.12,147.62Z"/><path class="cls-19" d="M58.79,153.07c-5,0-11.64-.78-13-1.58-1-.62-1.42-2.84-1.56-3.87h-.14s.28,3.58,1.61,4.39,8,1.63,13,1.59c1.45,0,1.94-.52,1.92-1.28C60.42,152.78,59.86,153.06,58.79,153.07Z"/><path class="cls-2" d="M152.27,136.5s-5.23-1.05-6.62-2.44-7.66-3.83-8.36-2.09-9.4,7.66-3.48,8.71,13.93,1.38,15.67.69S152.27,136.5,152.27,136.5Z"/><path class="cls-19" d="M133.81,140c5.92,1,13.93,1.39,15.67.7,1.33-.53,2.25-3.08,2.61-4.27l.18,0s-1.05,4.18-2.79,4.87-9.75.35-15.67-.69c-1.71-.3-2.19-1-2-1.91C132,139.35,132.54,139.8,133.81,140Z"/><path class="cls-1" d="M102.25,22.74H101A.88.88,0,0,0,101,21H90.93a.88.88,0,0,0,0,1.75h1.24a.86.86,0,0,0-.82.91.88.88,0,0,0,.82.83H90.43a.87.87,0,1,0,0,1.74h10.08a.87.87,0,1,0,0-1.74h1.74a.87.87,0,1,0,.08-1.74Z"/><path class="cls-1" d="M141.37,53.38h-1.25a.87.87,0,0,0,0-1.74H130a.87.87,0,0,0-.08,1.74h1.32a.86.86,0,0,0-.82.91.87.87,0,0,0,.82.83h-1.74a.87.87,0,0,0,0,1.74h10.07a.86.86,0,0,0,.87-.87.87.87,0,0,0-.87-.87h1.76a.87.87,0,0,0,.08-1.74Z"/><path class="cls-1" d="M83.4,47.71H82.16A.87.87,0,0,0,82.24,46H72.08A.87.87,0,1,0,72,47.71h1.32a.87.87,0,1,0-.08,1.74H71.58a.87.87,0,1,0,0,1.74H81.65a.87.87,0,0,0,0-1.74h1.74a.87.87,0,1,0,.09-1.74H83.4Z"/><path class="cls-5" d="M47.82,170.16A13.29,13.29,0,0,1,50,170a4.43,4.43,0,0,1,3.28,1.08,4.14,4.14,0,0,1,1.14,3.11,4.23,4.23,0,0,1-4.74,4.63,16.77,16.77,0,0,1-1.9-.1Zm1,7.67a6.19,6.19,0,0,0,1.05.07c2.23,0,3.44-1.34,3.44-3.69a3,3,0,0,0-3.27-3.34,5.82,5.82,0,0,0-1.22.11Z"/><path class="cls-5" d="M56.42,175.81a1.92,1.92,0,0,0,2,2.16,3.56,3.56,0,0,0,1.6-.32l.18.81a4.38,4.38,0,0,1-1.93.39c-1.78,0-2.85-1.26-2.85-3.14s1-3.36,2.72-3.36c1.9,0,2.4,1.79,2.4,2.93a3.26,3.26,0,0,1,0,.53Zm3.09-.81c0-.72-.28-1.84-1.46-1.84s-1.54,1.05-1.62,1.84Z"/><path class="cls-5" d="M61.84,174.17c0-.64,0-1.17-.05-1.68h.93l0,1h0a2,2,0,0,1,1.82-1.14,1.74,1.74,0,0,1,1.65,1.24h0a2.69,2.69,0,0,1,.65-.81,1.88,1.88,0,0,1,1.28-.43c.77,0,1.91.54,1.91,2.7v3.67h-1v-3.53c0-1.2-.41-1.92-1.26-1.92a1.39,1.39,0,0,0-1.25,1,2,2,0,0,0-.08.57v3.85h-1V175c0-1-.4-1.72-1.21-1.72a1.46,1.46,0,0,0-1.3,1.14,1.41,1.41,0,0,0-.09.55v3.76h-1Z"/><path class="cls-5" d="M77.1,175.55c0,2.31-1.49,3.31-2.89,3.31-1.57,0-2.78-1.23-2.78-3.2s1.27-3.31,2.88-3.31S77.1,173.65,77.1,175.55Zm-4.6.07c0,1.36.73,2.39,1.76,2.39S76,177,76,175.59c0-1.05-.49-2.39-1.74-2.39S72.5,174.43,72.5,175.62Z"/><path class="cls-5" d="M85.84,177c0,.64,0,1.21,0,1.7H85l-.06-1h0A2.16,2.16,0,0,1,83,178.86c-.92,0-2-.54-2-2.73v-3.64H82v3.45c0,1.18.33,2,1.29,2a1.59,1.59,0,0,0,1.49-1.61v-3.82h1.06Z"/><path class="cls-5" d="M87.59,174.17c0-.64,0-1.17,0-1.68h.94l.06,1h0a2.12,2.12,0,0,1,1.92-1.17c.81,0,2,.51,2,2.65v3.72h-1v-3.59c0-1-.35-1.84-1.35-1.84a1.51,1.51,0,0,0-1.41,1.16,1.64,1.64,0,0,0-.07.52v3.75H87.59Z"/><path class="cls-5" d="M99.26,169.58v7.53c0,.55,0,1.19,0,1.61h-1l0-1.08h0a2.13,2.13,0,0,1-2,1.22c-1.4,0-2.48-1.27-2.48-3.17,0-2.07,1.19-3.34,2.6-3.34a1.9,1.9,0,0,1,1.75,1h0v-3.72ZM98.21,175a1.88,1.88,0,0,0,0-.47,1.58,1.58,0,0,0-1.52-1.32c-1.09,0-1.74,1-1.74,2.41s.57,2.31,1.71,2.31a1.61,1.61,0,0,0,1.55-1.35,1.94,1.94,0,0,0,0-.49Z"/><path class="cls-5" d="M101.61,175.81a1.92,1.92,0,0,0,2,2.16,3.64,3.64,0,0,0,1.61-.32l.18.81a4.47,4.47,0,0,1-1.94.39c-1.78,0-2.85-1.26-2.85-3.14s1-3.36,2.72-3.36c1.9,0,2.4,1.79,2.4,2.93a3.26,3.26,0,0,1,0,.53Zm3.09-.81c0-.72-.27-1.84-1.46-1.84s-1.54,1.05-1.62,1.84Z"/><path class="cls-5" d="M107,174.43c0-.73,0-1.36,0-1.94h.93l0,1.22h0a1.76,1.76,0,0,1,1.61-1.36,1.39,1.39,0,0,1,.3,0v1.07a1.88,1.88,0,0,0-.36,0c-.75,0-1.27.61-1.42,1.46a4,4,0,0,0-.05.53v3.32h-1Z"/><path class="cls-5" d="M117.64,178.49a3.76,3.76,0,0,1-1.67.36,2.87,2.87,0,0,1-2.89-3.18,3.06,3.06,0,0,1,3.12-3.31,3.4,3.4,0,0,1,1.46.32l-.24.88a2.26,2.26,0,0,0-1.22-.3,2.1,2.1,0,0,0-2,2.36,2.07,2.07,0,0,0,2,2.33,2.87,2.87,0,0,0,1.3-.31Z"/><path class="cls-5" d="M124.06,175.55c0,2.31-1.49,3.31-2.89,3.31-1.58,0-2.79-1.23-2.79-3.2s1.27-3.31,2.88-3.31S124.06,173.65,124.06,175.55Zm-4.61.07c0,1.36.73,2.39,1.76,2.39s1.77-1,1.77-2.42c0-1.05-.5-2.39-1.74-2.39S119.45,174.43,119.45,175.62Z"/><path class="cls-5" d="M125.39,174.17c0-.64,0-1.17,0-1.68h.94l.06,1h0a2.12,2.12,0,0,1,1.92-1.17c.81,0,2.05.51,2.05,2.65v3.72h-1.05v-3.59c0-1-.35-1.84-1.35-1.84a1.51,1.51,0,0,0-1.41,1.16,1.64,1.64,0,0,0-.07.52v3.75h-1.06Z"/><path class="cls-5" d="M133.27,170.7v1.79h1.52v.86h-1.52v3.36c0,.77.21,1.21.8,1.21a2.13,2.13,0,0,0,.61-.08l0,.86a2.39,2.39,0,0,1-.93.15,1.41,1.41,0,0,1-1.14-.48,2.42,2.42,0,0,1-.41-1.62v-3.4h-.9v-.86h.9V171Z"/><path class="cls-5" d="M136,174.43c0-.73,0-1.36,0-1.94h.92l0,1.22h0a1.77,1.77,0,0,1,1.61-1.36,1.39,1.39,0,0,1,.3,0v1.07a1.79,1.79,0,0,0-.36,0,1.53,1.53,0,0,0-1.41,1.46,2.81,2.81,0,0,0,0,.53v3.32H136Z"/><path class="cls-5" d="M144.76,177c0,.64,0,1.21.05,1.7h-.94l-.06-1h0a2.16,2.16,0,0,1-1.92,1.16c-.92,0-2-.54-2-2.73v-3.64h1.06v3.45c0,1.18.33,2,1.29,2a1.59,1.59,0,0,0,1.49-1.61v-3.82h1.06Z"/><path class="cls-5" d="M150.65,178.49a3.76,3.76,0,0,1-1.67.36,2.87,2.87,0,0,1-2.89-3.18,3.06,3.06,0,0,1,3.12-3.31,3.4,3.4,0,0,1,1.46.32l-.24.88a2.26,2.26,0,0,0-1.22-.3,2.1,2.1,0,0,0-2.05,2.36,2.07,2.07,0,0,0,2,2.33,2.87,2.87,0,0,0,1.3-.31Z"/><path class="cls-5" d="M153.31,170.7v1.79h1.52v.86h-1.52v3.36c0,.77.21,1.21.8,1.21a2.13,2.13,0,0,0,.61-.08l.05.86a2.48,2.48,0,0,1-.94.15,1.41,1.41,0,0,1-1.14-.48,2.42,2.42,0,0,1-.41-1.62v-3.4h-.9v-.86h.9V171Z"/><path class="cls-5" d="M157.19,170.74a.65.65,0,0,1-.67.69.66.66,0,0,1-.64-.69.67.67,0,0,1,.66-.71A.65.65,0,0,1,157.19,170.74Zm-1.17,8v-6.23h1v6.23Z"/><path class="cls-5" d="M164.08,175.55c0,2.31-1.49,3.31-2.9,3.31-1.57,0-2.78-1.23-2.78-3.2s1.27-3.31,2.88-3.31S164.08,173.65,164.08,175.55Zm-4.61.07c0,1.36.73,2.39,1.76,2.39s1.77-1,1.77-2.42c0-1.05-.5-2.39-1.74-2.39S159.47,174.43,159.47,175.62Z"/><path class="cls-5" d="M165.41,174.17c0-.64,0-1.17,0-1.68h.94l.06,1h0a2.12,2.12,0,0,1,1.92-1.17c.8,0,2,.51,2,2.65v3.72h-1v-3.59c0-1-.35-1.84-1.35-1.84a1.51,1.51,0,0,0-1.41,1.16,1.64,1.64,0,0,0-.07.52v3.75h-1.06Z"/></g></g></svg>